<svg width="15" height="21" viewBox="0 0 15 21" fill="none" xmlns="http://www.w3.org/2000/svg">
<path d="M14.2262 3.05574C14.2256 2.48667 14.0048 1.94107 13.6124 1.53868C13.2199 1.13628 12.6877 0.909955 12.1327 0.909363H2.36313C1.80808 0.909955 1.27593 1.13628 0.883456 1.53868C0.490978 1.94107 0.270231 2.48667 0.269653 3.05574V18.7959C0.270231 19.3649 0.490978 19.9105 0.883456 20.3129C1.27593 20.7153 1.80808 20.9417 2.36313 20.9423H12.1327C12.6877 20.9417 13.2199 20.7153 13.6124 20.3129C14.0048 19.9105 14.2256 19.3649 14.2262 18.7959V3.05574ZM3.40987 18.7959C3.20284 18.7959 3.00047 18.7329 2.82833 18.615C2.6562 18.4971 2.52203 18.3295 2.44281 18.1334C2.36358 17.9373 2.34285 17.7215 2.38324 17.5133C2.42363 17.3051 2.52332 17.1139 2.66971 16.9638C2.8161 16.8137 3.00261 16.7115 3.20566 16.6701C3.40871 16.6287 3.61917 16.65 3.81044 16.7312C4.0017 16.8124 4.16518 16.95 4.2802 17.1265C4.39522 17.3029 4.4566 17.5104 4.4566 17.7227C4.4566 18.0073 4.34632 18.2803 4.15002 18.4815C3.95372 18.6828 3.68748 18.7959 3.40987 18.7959ZM3.40987 15.2186C3.20284 15.2186 3.00047 15.1556 2.82833 15.0377C2.6562 14.9198 2.52203 14.7522 2.44281 14.5561C2.36358 14.36 2.34285 14.1442 2.38324 13.936C2.42363 13.7278 2.52332 13.5366 2.66971 13.3865C2.8161 13.2364 3.00261 13.1342 3.20566 13.0928C3.40871 13.0514 3.61917 13.0727 3.81044 13.1539C4.0017 13.2351 4.16518 13.3727 4.2802 13.5491C4.39522 13.7256 4.4566 13.9331 4.4566 14.1454C4.4566 14.43 4.34632 14.703 4.15002 14.9042C3.95372 15.1055 3.68748 15.2186 3.40987 15.2186ZM3.40987 11.6413C3.20284 11.6413 3.00047 11.5783 2.82833 11.4604C2.6562 11.3425 2.52203 11.1749 2.44281 10.9788C2.36358 10.7827 2.34285 10.5669 2.38324 10.3587C2.42363 10.1505 2.52332 9.95931 2.66971 9.80922C2.8161 9.65913 3.00261 9.55692 3.20566 9.51551C3.40871 9.4741 3.61917 9.49535 3.81044 9.57658C4.0017 9.65781 4.16518 9.79536 4.2802 9.97185C4.39522 10.1483 4.4566 10.3558 4.4566 10.5681C4.4566 10.8527 4.34632 11.1257 4.15002 11.3269C3.95372 11.5282 3.68748 11.6413 3.40987 11.6413ZM7.24791 18.7959C7.04088 18.7959 6.8385 18.7329 6.66637 18.615C6.49423 18.4971 6.36007 18.3295 6.28085 18.1334C6.20162 17.9373 6.18089 17.7215 6.22128 17.5133C6.26167 17.3051 6.36136 17.1139 6.50775 16.9638C6.65414 16.8137 6.84065 16.7115 7.0437 16.6701C7.24674 16.6287 7.45721 16.65 7.64847 16.7312C7.83974 16.8124 8.00322 16.95 8.11824 17.1265C8.23325 17.3029 8.29464 17.5104 8.29464 17.7227C8.29464 18.0073 8.18436 18.2803 7.98806 18.4815C7.79176 18.6828 7.52552 18.7959 7.24791 18.7959ZM7.24791 15.2186C7.04088 15.2186 6.8385 15.1556 6.66637 15.0377C6.49423 14.9198 6.36007 14.7522 6.28085 14.5561C6.20162 14.36 6.18089 14.1442 6.22128 13.936C6.26167 13.7278 6.36136 13.5366 6.50775 13.3865C6.65414 13.2364 6.84065 13.1342 7.0437 13.0928C7.24674 13.0514 7.45721 13.0727 7.64847 13.1539C7.83974 13.2351 8.00322 13.3727 8.11824 13.5491C8.23325 13.7256 8.29464 13.9331 8.29464 14.1454C8.29464 14.43 8.18436 14.703 7.98806 14.9042C7.79176 15.1055 7.52552 15.2186 7.24791 15.2186ZM7.24791 11.6413C7.04088 11.6413 6.8385 11.5783 6.66637 11.4604C6.49423 11.3425 6.36007 11.1749 6.28085 10.9788C6.20162 10.7827 6.18089 10.5669 6.22128 10.3587C6.26167 10.1505 6.36136 9.95931 6.50775 9.80922C6.65414 9.65913 6.84065 9.55692 7.0437 9.51551C7.24674 9.4741 7.45721 9.49535 7.64847 9.57658C7.83974 9.65781 8.00322 9.79536 8.11824 9.97185C8.23325 10.1483 8.29464 10.3558 8.29464 10.5681C8.29464 10.8527 8.18436 11.1257 7.98806 11.3269C7.79176 11.5282 7.52552 11.6413 7.24791 11.6413ZM12.1327 17.7227C12.1327 18.0073 12.0224 18.2803 11.8261 18.4815C11.6298 18.6828 11.3636 18.7959 11.0859 18.7959C10.8083 18.7959 10.5421 18.6828 10.3458 18.4815C10.1495 18.2803 10.0392 18.0073 10.0392 17.7227V14.1454C10.0392 13.8608 10.1495 13.5878 10.3458 13.3865C10.5421 13.1853 10.8083 13.0722 11.0859 13.0722C11.3636 13.0722 11.6298 13.1853 11.8261 13.3865C12.0224 13.5878 12.1327 13.8608 12.1327 14.1454V17.7227ZM11.0859 11.6413C10.8789 11.6413 10.6765 11.5783 10.5044 11.4604C10.3323 11.3425 10.1981 11.1749 10.1189 10.9788C10.0397 10.7827 10.0189 10.5669 10.0593 10.3587C10.0997 10.1505 10.1994 9.95931 10.3458 9.80922C10.4922 9.65913 10.6787 9.55692 10.8817 9.51551C11.0848 9.4741 11.2952 9.49535 11.4865 9.57658C11.6778 9.65781 11.8413 9.79536 11.9563 9.97185C12.0713 10.1483 12.1327 10.3558 12.1327 10.5681C12.1327 10.8527 12.0224 11.1257 11.8261 11.3269C11.6298 11.5282 11.3636 11.6413 11.0859 11.6413ZM11.9281 7.13879C11.7973 7.27298 11.6199 7.34842 11.4349 7.34851H3.06095C2.87588 7.34851 2.69839 7.27313 2.56752 7.13895C2.43665 7.00478 2.36313 6.8228 2.36313 6.63305V3.7712C2.36313 3.58145 2.43665 3.39947 2.56752 3.2653C2.69839 3.13112 2.87588 3.05574 3.06095 3.05574H11.4349C11.6199 3.05574 11.7974 3.13112 11.9283 3.2653C12.0592 3.39947 12.1327 3.58145 12.1327 3.7712V6.63305C12.1326 6.82276 12.059 7.00468 11.9281 7.13879Z" fill="#0D0101"/>
</svg>
