<svg width="17" height="19" viewBox="0 0 17 19" fill="none" xmlns="http://www.w3.org/2000/svg">
<path d="M15.1044 0.420166H1.81253C1.33182 0.420166 0.870794 0.618892 0.530879 0.972625C0.190963 1.32636 0 1.80612 0 2.30638L0 16.1386C0 16.6389 0.190963 17.1186 0.530879 17.4724C0.870794 17.8261 1.33182 18.0248 1.81253 18.0248H15.1044C15.5852 18.0248 16.0462 17.8261 16.3861 17.4724C16.726 17.1186 16.917 16.6389 16.917 16.1386V2.30638C16.917 1.80612 16.726 1.32636 16.3861 0.972625C16.0462 0.618892 15.5852 0.420166 15.1044 0.420166ZM14.4855 12.4986L13.9191 15.0529C13.8903 15.1827 13.8201 15.2986 13.7199 15.3816C13.6198 15.4646 13.4955 15.5098 13.3674 15.5099C7.32565 15.5099 2.41671 10.4128 2.41671 4.114C2.42121 3.98199 2.4663 3.85496 2.54535 3.75161C2.62441 3.64826 2.73325 3.57405 2.85587 3.53989L5.31034 2.95044C5.35221 2.94123 5.39481 2.9361 5.4376 2.93512C5.54713 2.94087 5.65319 2.97703 5.74476 3.03984C5.83632 3.10266 5.91007 3.18983 5.95832 3.29232L7.09116 6.04305C7.1189 6.11721 7.13435 6.19574 7.13685 6.27529C7.12763 6.44978 7.05307 6.61356 6.92916 6.73152L5.49839 7.9497C6.36532 9.86181 7.84415 11.4008 9.68157 12.3029L10.8522 10.814C10.9655 10.685 11.1229 10.6075 11.2906 10.5979C11.367 10.6004 11.4425 10.6165 11.5137 10.6454L14.157 11.8243C14.2555 11.8744 14.3394 11.9512 14.3997 12.0465C14.4601 12.1418 14.4948 12.2522 14.5003 12.3662C14.4995 12.4107 14.4946 12.4551 14.4855 12.4986Z" fill="#100101"/>
</svg>
