<svg width="20" height="17" viewBox="0 0 20 17" fill="none" xmlns="http://www.w3.org/2000/svg">
<path d="M1.91726 6.76163V14.6245H17.2553V6.76163L9.58629 9.71019L1.91726 6.76163ZM1.91726 2.83021V4.79592L9.58629 7.74448L17.2553 4.79592V2.83021H1.91726ZM1.91726 0.864502H17.2553C17.7638 0.864502 18.2515 1.0716 18.611 1.44024C18.9706 1.80889 19.1726 2.30887 19.1726 2.83021V14.6245C19.1726 15.1458 18.9706 15.6458 18.611 16.0144C18.2515 16.3831 17.7638 16.5902 17.2553 16.5902H1.91726C1.40877 16.5902 0.921107 16.3831 0.561552 16.0144C0.201996 15.6458 0 15.1458 0 14.6245V2.83021C0 2.30887 0.201996 1.80889 0.561552 1.44024C0.921107 1.0716 1.40877 0.864502 1.91726 0.864502Z" fill="#0C0000"/>
</svg>
