<svg width="14" height="23" viewBox="0 0 14 23" fill="none" xmlns="http://www.w3.org/2000/svg">
<path d="M7.24789 0.966797C3.60336 0.966797 0.650269 3.98235 0.650269 7.71762C0.650269 14.1762 7.24789 22.5992 7.24789 22.5992C7.24789 22.5992 13.8455 14.1749 13.8455 7.71762C13.8455 3.9837 10.8924 0.966797 7.24789 0.966797ZM7.24789 11.4529C6.303 11.4529 5.39681 11.0681 4.72867 10.383C4.06053 9.69801 3.68517 8.76892 3.68517 7.80015C3.68517 6.83138 4.06053 5.90229 4.72867 5.21726C5.39681 4.53224 6.303 4.1474 7.24789 4.1474C8.19278 4.1474 9.09897 4.53224 9.76711 5.21726C10.4352 5.90229 10.8106 6.83138 10.8106 7.80015C10.8106 8.76892 10.4352 9.69801 9.76711 10.383C9.09897 11.0681 8.19278 11.4529 7.24789 11.4529Z" fill="#0E0101"/>
</svg>
